<?xml version="1.0"?>
<svg width="66.102" height="82.93" xmlns="http://www.w3.org/2000/svg" xmlns:svg="http://www.w3.org/2000/svg" fill="transparent" stroke="black" stroke-width="0.3">
 <g class="layer">
  <title>Layer 1</title>
  <g id="svg_1">
   <path d="m0.000001,-0.000001l0,82.93l66.102,0l0,-82.93l-66.102,0zm63.101,79.93l-60.102,0l0,-76.93l60.102,0l0,76.93z" id="svg_2"/>
   <path d="m42.606001,52.996999c1.36,-1.914 2.168,-4.245 2.168,-6.766c0,-6.465 -5.259,-11.725 -11.723,-11.725s-11.724,5.26 -11.724,11.725c0,2.522 0.809,4.854 2.17,6.768l-7.639,10.932c-0.354,0.507 -0.361,1.179 -0.018,1.693c0.343,0.513 0.966,0.762 1.57,0.631l5.838,-1.29l1.06,5.456c0.122,0.624 0.623,1.104 1.251,1.197c0.074,0.011 0.148,0.017 0.222,0.017c0.548,0 1.062,-0.301 1.324,-0.796l5.945,-11.192l5.948,11.192c0.263,0.495 0.776,0.796 1.324,0.796c0.073,0 0.147,-0.005 0.222,-0.017c0.628,-0.094 1.13,-0.573 1.251,-1.197l1.062,-5.456l5.83,1.289c0.604,0.132 1.227,-0.117 1.571,-0.631c0.343,-0.514 0.336,-1.186 -0.017,-1.693l-7.635,-10.933zm-9.556,-15.491c4.81,0 8.723,3.914 8.723,8.725c0,4.808 -3.913,8.719 -8.723,8.719s-8.724,-3.911 -8.724,-8.719c0.001,-4.81 3.914,-8.725 8.724,-8.725zm-6.605,28.182l-0.544,-2.805c-0.077,-0.397 -0.312,-0.746 -0.649,-0.968c-0.338,-0.222 -0.751,-0.297 -1.146,-0.211l-3.584,0.792l5.06,-7.241c1.45,1.201 3.192,2.061 5.103,2.454l-4.24,7.979zm15.558,-3.983c-0.394,-0.086 -0.808,-0.011 -1.146,0.21c-0.338,0.222 -0.572,0.571 -0.649,0.968l-0.547,2.809l-4.242,-7.982c1.911,-0.393 3.654,-1.254 5.103,-2.455l5.057,7.242l-3.576,-0.792z" id="svg_3"/>
   <!-- <path d="M31.258,31.076h35.244c0.829,0,1.5-0.671,1.5-1.5s-0.671-1.5-1.5-1.5H31.258c-0.829,0-1.5,0.671-1.5,1.5
		S30.429,31.076,31.258,31.076z"/> -->
  </g>
 </g>
</svg>