<svg xmlns="http://www.w3.org/2000/svg" xmlns:xlink="http://www.w3.org/1999/xlink" version="1.1" fill="transparent" stroke="black" stroke-width="0.7" width="66.502" height="83.33" style=""><rect id="backgroundrect" width="100%" height="100%" x="0" y="0" fill="none" stroke="none" class="" style=""/>

<g class="currentLayer" style=""><title>Layer 1</title><g id="svg_1" class="selected">
	<path d="M0.3457141494750968,0.3685712540149705 v82.93 h66.102 V0.3685712540149705 H0.3457141494750968 zM63.4467141494751,80.29857125401497 H3.3447141494750987 V3.3685712540149684 h60.102 V80.29857125401497 z" id="svg_2"/>
	<path d="M42.951714149475094,53.36557125401497 c1.36,-1.9140000000000001 2.168,-4.245 2.168,-6.766 c0,-6.465 -5.259,-11.725 -11.723,-11.725 s-11.724,5.26 -11.724,11.725 c0,2.5220000000000002 0.809,4.854 2.17,6.768 l-7.639,10.932 c-0.3540000000000003,0.507 -0.3610000000000003,1.179 -0.01800000000000005,1.693 c0.3430000000000033,0.513 0.9660000000000006,0.7620000000000057 1.57,0.631000000000005 l5.838,-1.29 l1.06,5.456 c0.12200000000000012,0.624000000000005 0.623000000000005,1.104 1.251,1.197 c0.07400000000000002,0.011000000000000138 0.14800000000000021,0.01700000000000021 0.22200000000000136,0.01700000000000021 c0.548,0 1.062,-0.3010000000000003 1.324,-0.796 l5.945,-11.192 l5.948,11.192 c0.263,0.4950000000000018 0.776,0.796 1.324,0.796 c0.07300000000000002,0 0.1470000000000002,-0.005000000000000046 0.22200000000000136,-0.01700000000000021 c0.628000000000005,-0.0940000000000012 1.13,-0.5730000000000006 1.251,-1.197 l1.062,-5.456 l5.83,1.2890000000000001 c0.6040000000000006,0.132 1.227,-0.11700000000000083 1.5710000000000002,-0.631000000000005 c0.3430000000000033,-0.514 0.3360000000000033,-1.186 -0.01700000000000021,-1.693 L42.951714149475094,53.36557125401497 zM33.3957141494751,37.87457125401497 c4.8100000000000005,0 8.723,3.914 8.723,8.725 c0,4.808 -3.9130000000000003,8.719 -8.723,8.719 s-8.724,-3.911 -8.724,-8.719 C24.672714149475098,41.789571254014966 28.585714149475095,37.87457125401497 33.3957141494751,37.87457125401497 zM26.7907141494751,66.05657125401497 l-0.544,-2.805 c-0.07700000000000012,-0.3970000000000033 -0.3120000000000025,-0.746000000000005 -0.6490000000000057,-0.9680000000000006 c-0.3380000000000033,-0.22200000000000136 -0.751000000000005,-0.2970000000000003 -1.146,-0.21100000000000024 l-3.584,0.792 l5.06,-7.241 c1.45,1.201 3.192,2.061 5.103,2.454 L26.7907141494751,66.05657125401497 zM42.3487141494751,62.073571254014965 c-0.3940000000000029,-0.08600000000000083 -0.808,-0.011000000000000138 -1.146,0.21000000000000021 c-0.3380000000000033,0.22200000000000136 -0.5720000000000006,0.5710000000000006 -0.6490000000000057,0.9680000000000006 l-0.547,2.809 l-4.242,-7.982 c1.911,-0.39300000000000285 3.654,-1.254 5.103,-2.455 l5.057,7.242 L42.3487141494751,62.073571254014965 z" id="svg_3"/>
	<!-- <path d="M31.258,31.076h35.244c0.829,0,1.5-0.671,1.5-1.5s-0.671-1.5-1.5-1.5H31.258c-0.829,0-1.5,0.671-1.5,1.5
		S30.429,31.076,31.258,31.076z"/> -->
</g><path fill="" fill-opacity="1" stroke="none" stroke-opacity="1" stroke-width="1" stroke-dasharray="none" stroke-linejoin="miter" stroke-linecap="butt" stroke-dashoffset="" fill-rule="nonzero" opacity="1" marker-start="" marker-mid="" marker-end="" id="svg_5" d="M 64.46271733663283 71.37705788232697 L 65.71428571428572 71.42857142857143 L 72.85714285714286 80 L 70.89285714285715 53.75" style="color: rgb(0, 0, 0);"/></g></svg>