<!-- icon666.com - MILLIONS vector ICONS FREE --><svg id="Capa_1" enable-background="new 0 0 512 512" viewBox="0 0 512 512" xmlns="http://www.w3.org/2000/svg"><g><path d="m412.6 405.096v-182.214c0-.005.001-.01.001-.015s-.001-.01-.001-.015v-66.252c0-10.474-3.968-20.395-11.183-27.983-.059-.068-.119-.134-.181-.2l-38.336-41.042v-22.675h9.066c4.143 0 7.5-3.358 7.5-7.5v-33.132c.001-13.271-10.796-24.068-24.067-24.068h-198.798c-13.271 0-24.068 10.797-24.068 24.068v33.132c0 4.142 3.358 7.5 7.5 7.5h9.067v22.675l-38.336 41.042c-.055.06-.11.12-.163.181-7.227 7.59-11.201 17.519-11.201 28.003v33.133 66.267c0 4.142 3.358 7.5 7.5 7.5s7.5-3.358 7.5-7.5v-25.634h283.2v167.233h-283.2v-111.733c0-4.142-3.358-7.5-7.5-7.5s-7.5 3.358-7.5 7.5v152.367 33.133c0 22.405 18.228 40.633 40.633 40.633h231.934c22.405 0 40.634-18.228 40.634-40.633v-66.262c0-.001 0-.003 0-.004s-.001-.003-.001-.005zm-265.067-381.028c0-5 4.068-9.068 9.068-9.068h198.799c5 0 9.067 4.068 9.067 9.068v25.632h-9.067-9.066v-9.067c0-4.142-3.357-7.5-7.5-7.5s-7.5 3.358-7.5 7.5v9.067h-18.134v-9.067c0-4.142-3.357-7.5-7.5-7.5s-7.5 3.358-7.5 7.5v9.067h-18.134v-9.067c0-4.142-3.357-7.5-7.5-7.5s-7.5 3.358-7.5 7.5v9.067h-18.133v-9.067c0-4.142-3.358-7.5-7.5-7.5s-7.5 3.358-7.5 7.5v9.067h-18.133v-9.067c0-4.142-3.358-7.5-7.5-7.5s-7.5 3.358-7.5 7.5v9.067h-18.133v-9.067c0-4.142-3.358-7.5-7.5-7.5s-7.5 3.358-7.5 7.5v9.067h-9.067-9.067zm-25.894 114.691c.115-.119.226-.241.332-.366l37.886-40.56h29.876c4.142 0 7.5-3.358 7.5-7.5s-3.358-7.5-7.5-7.5h-25.633v-18.133h183.8v18.133h-25.634c-4.143 0-7.5 3.358-7.5 7.5s3.357 7.5 7.5 7.5h29.877l37.87 40.544c.11.13.227.258.347.382 4.668 4.813 7.239 11.148 7.239 17.841v25.634h-283.2v-25.633c0-6.694 2.571-13.03 7.24-17.842zm-7.24 76.608v-18.133h283.2v18.133zm283.201 197.234v18.133h-283.2v-18.133zm-25.633 84.399h-231.934c-14.134 0-25.633-11.499-25.633-25.633v-25.633h283.201v25.633c0 14.134-11.499 25.633-25.634 25.633z"></path><path d="m255.446 360.288 23.429-23.429 23.43-23.429c12.612-12.613 12.612-33.136-.001-45.749-6.11-6.11-14.233-9.475-22.875-9.475-8.641 0-16.765 3.365-22.874 9.475l-23.424 23.424c-.002.002-.003.003-.005.005s-.003.003-.005.005l-23.424 23.424c-12.613 12.613-12.613 33.136 0 45.75 6.307 6.308 14.59 9.461 22.875 9.46 8.282-.002 16.568-3.155 22.874-9.461zm11.715-82.001c3.276-3.277 7.634-5.082 12.268-5.082 4.635 0 8.992 1.805 12.269 5.082 6.765 6.765 6.765 17.772 0 24.537l-18.126 18.126-24.536-24.537zm-46.858 71.394c-6.765-6.765-6.765-17.772 0-24.537l18.126-18.126 24.536 24.537-18.125 18.125c-6.766 6.766-17.773 6.766-24.537.001z"></path><path d="m331.334 371.967c0 4.142 3.357 7.5 7.5 7.5h33.133c4.143 0 7.5-3.358 7.5-7.5s-3.357-7.5-7.5-7.5h-33.133c-4.143 0-7.5 3.358-7.5 7.5z"></path><path d="m371.967 346.334c4.143 0 7.5-3.358 7.5-7.5s-3.357-7.5-7.5-7.5h-16.567c-4.143 0-7.5 3.358-7.5 7.5s3.357 7.5 7.5 7.5z"></path><path d="m180.666 272.567c0-13.27-10.796-24.067-24.067-24.067s-24.066 10.796-24.066 24.067c0 13.27 10.796 24.066 24.066 24.066 13.271.001 24.067-10.796 24.067-24.066zm-33.133 0c0-4.999 4.067-9.067 9.066-9.067s9.067 4.067 9.067 9.067c0 4.999-4.067 9.066-9.067 9.066-4.998.001-9.066-4.067-9.066-9.066z"></path></g></svg>