<!-- icon666.com - MILLIONS vector ICONS FREE --><svg viewBox="0 0 64 64" xmlns="http://www.w3.org/2000/svg"><g id="_23-Cosmetics" data-name="23-Cosmetics"><path d="m58 64h-12a1 1 0 0 1 -.707-.293l-2-2a1 1 0 0 1 -.293-.707v-22a1 1 0 0 1 1-1h16a1 1 0 0 1 1 1v22a1 1 0 0 1 -.293.707l-2 2a1 1 0 0 1 -.707.293zm-11.586-2h11.172l1.414-1.414v-20.586h-14v20.586z"></path><path d="m59 39h-2v-9h-10v9h-2v-10a1 1 0 0 1 1-1h12a1 1 0 0 1 1 1z"></path><path d="m57 29h-2v-6.586l-4.293-4.293a1 1 0 0 0 -1.707.707v10.172h-2v-10.172a3 3 0 0 1 5.121-2.121l4.586 4.586a1 1 0 0 1 .293.707z"></path><path d="m44 42h16v2h-16z"></path><path d="m12 64h-6a1 1 0 0 1 -.707-.293l-2-2a1 1 0 0 1 -.293-.707v-22a1 1 0 0 1 1-1h10a1 1 0 0 1 1 1v22a1 1 0 0 1 -.293.707l-2 2a1 1 0 0 1 -.707.293zm-5.586-2h5.172l1.414-1.414v-20.586h-8v20.586z"></path><path d="m4 42h10v2h-10z"></path><path d="m36 30h-12a1 1 0 0 1 -.868-.5l-8-14a1 1 0 0 1 -.132-.5 15 15 0 0 1 30 0 1 1 0 0 1 -.132.5l-8 14a1 1 0 0 1 -.868.5zm-11.42-2h10.84l7.58-13.261a13 13 0 0 0 -25.994 0z"></path><path d="m36 36h-12a1 1 0 0 1 -1-1v-6a1 1 0 0 1 1-1h12a1 1 0 0 1 1 1v6a1 1 0 0 1 -1 1zm-11-2h10v-4h-10z"></path><path d="m34 64h-8a1 1 0 0 1 -.707-.293l-2-2a1 1 0 0 1 -.293-.707v-26h2v25.586l1.414 1.414h7.172l1.414-1.414v-25.586h2v26a1 1 0 0 1 -.293.707l-2 2a1 1 0 0 1 -.707.293z"></path><path d="m24 58h12v2h-12z"></path><path d="m29 14h2v15h-2z"></path><path d="m24.5 15.829h2v13.342h-2z" transform="matrix(.974 -.225 .225 .974 -4.406 6.31)"></path><path d="m27.829 21.5h13.342v2h-13.342z" transform="matrix(.225 -.974 .974 .225 4.827 51.066)"></path><path d="m12 27h-6a1 1 0 0 1 -1-1v-9a4 4 0 0 1 8 0v9a1 1 0 0 1 -1 1zm-5-2h4v-8a2 2 0 0 0 -4 0z"></path><path d="m8 26h2v13h-2z"></path><path d="m6 21h6v2h-6z"></path><path d="m6 17h6v2h-6z"></path></g></svg>