<!-- icon666.com - MILLIONS vector ICONS FREE --><svg version="1.1" id="Capa_1" xmlns="http://www.w3.org/2000/svg" xmlns:xlink="http://www.w3.org/1999/xlink" x="0px" y="0px" viewBox="0 0 64.002 64.002" style="enable-background:new 0 0 64.002 64.002;" xml:space="preserve"><g><path d="M32,30c-7.72,0-14,6.28-14,14s6.28,14,14,14s14-6.28,14-14S39.72,30,32,30z M32,56c-6.617,0-12-5.383-12-12s5.383-12,12-12 s12,5.383,12,12S38.617,56,32,56z"></path><path d="M36,24.424v-9.22l3.858,3.376c1.788,1.564,4.504,1.472,6.183-0.207c0.883-0.883,1.365-2.104,1.323-3.352 c-0.041-1.248-0.604-2.435-1.544-3.257L32.658,0.247c-0.385-0.338-0.964-0.327-1.341,0.022L18.946,11.815 c-0.894,0.836-1.399,1.97-1.42,3.194c-0.02,1.225,0.444,2.375,1.31,3.24c0.846,0.846,1.969,1.312,3.164,1.312 s2.318-0.466,3.164-1.312L28,15.413v9.011c-9.905,2.014-16.843,11.269-15.915,21.45c0.857,9.388,8.27,16.959,17.627,17.999 c0.779,0.086,1.553,0.129,2.321,0.129c4.929,0,9.583-1.768,13.3-5.094C49.57,55.116,52,49.682,52,44 C52,34.408,45.321,26.307,36,24.424z M43.999,57.418c-3.866,3.46-8.862,5.046-14.066,4.467 c-8.417-0.936-15.085-7.746-15.856-16.193c-0.859-9.422,5.765-17.964,15.08-19.445C29.642,26.17,30,25.751,30,25.26V13 c0-0.404-0.243-0.769-0.617-0.924C29.259,12.024,29.129,12,29,12c-0.26,0-0.516,0.102-0.707,0.293l-4.543,4.543 c-0.936,0.936-2.565,0.936-3.5,0c-0.479-0.479-0.735-1.115-0.724-1.792s0.29-1.305,0.785-1.767l11.71-10.93l12.482,10.922 c0.532,0.465,0.838,1.111,0.861,1.817c0.024,0.707-0.238,1.372-0.738,1.872c-0.939,0.936-2.453,0.989-3.452,0.115l-5.517-4.827 c-0.294-0.257-0.714-0.319-1.071-0.157c-0.357,0.162-0.587,0.518-0.587,0.91v12.26c0,0.491,0.357,0.91,0.843,0.987 C43.626,27.643,50,35.11,50,44C50,49.114,47.813,54.005,43.999,57.418z"></path></g></svg>