<!-- icon666.com - MILLIONS vector ICONS FREE --><svg id="Artboard_30" viewBox="0 0 64 64" xmlns="http://www.w3.org/2000/svg" data-name="Artboard 30"><path d="m37 34h-3v-1a1 1 0 0 0 -1-1h-5a1 1 0 0 0 -1 1v5h-6v-5a1 1 0 0 0 -1-1h-5a1 1 0 0 0 -1 1v1h-3a1 1 0 0 0 -1 1v12a1 1 0 0 0 1 1h3v1a1 1 0 0 0 1 1h5a1 1 0 0 0 1-1v-5h6v5a1 1 0 0 0 1 1h5a1 1 0 0 0 1-1v-1h3a1 1 0 0 0 1-1v-12a1 1 0 0 0 -1-1zm-25 12v-10h2v10zm7 2h-3v-14h3zm5-6h-3v-2h6v2zm8 6h-3v-14h3zm4-2h-2v-10h2z"></path><path d="m11 28h7v2h-7z"></path><path d="m20 28h2v2h-2z"></path><path d="m24 28h13v2h-13z"></path><path d="m10 5h24v2h-24z"></path><path d="m36 5h2v2h-2z"></path><path d="m60 49h-6.323l-1.246-3.115a2.986 2.986 0 0 0 -2.785-1.885h-2.646v-20a9.01 9.01 0 0 0 -8-8.941v-2.059a3 3 0 0 0 3-3v-6a3 3 0 0 0 -3-3h-30a3 3 0 0 0 -3 3v6a3 3 0 0 0 3 3v2.059a9.01 9.01 0 0 0 -8 8.941v32a3 3 0 0 0 3 3h1v1a3 3 0 0 0 3 3h45a1 1 0 0 0 1-.917l.587-7.083h5.413a3 3 0 0 0 0-6zm-9.426-2.372.949 2.372h-8.046l.948-2.371a1 1 0 0 1 .929-.629h4.292a1 1 0 0 1 .928.628zm-8.006-.742-1.245 3.114h-.323a1 1 0 0 0 -1 1.083l.163 1.917h-37.163v-26h42v18.026a2.983 2.983 0 0 0 -2.432 1.86zm-34.568-35.886v-6a1 1 0 0 1 1-1h30a1 1 0 0 1 1 1v6a1 1 0 0 1 -1 1h-30a1 1 0 0 1 -1-1zm29 3v2h-26v-2zm-27 4h28a7.008 7.008 0 0 1 7 7h-42a7.008 7.008 0 0 1 7-7zm-7 39v-2h37.33l.25 3h-36.58a1 1 0 0 1 -1-1zm4 4v-1h33.747l.166 2h-32.913a1 1 0 0 1 -1-1zm45.08 1h-9.16l-.833-10h10.826zm7.92-8h-5.247l.167-2h5.08a1 1 0 0 1 0 2z"></path></svg>